<?xml version="1.0" encoding="utf-8"?>
<!-- Generator: Adobe Illustrator 25.0.1, SVG Export Plug-In . SVG Version: 6.00 Build 0)  -->
<svg version="1.1" id="Layer_1" xmlns="http://www.w3.org/2000/svg" xmlns:xlink="http://www.w3.org/1999/xlink" x="0px" y="0px"
	 viewBox="0 0 512 512" style="enable-background:new 0 0 512 512;" xml:space="preserve">
<style type="text/css">
	.st0{fill:#8756A3;}
</style>
<path class="st0" d="M500.4,94.8c-8,3.6-16.3,6.6-24.8,9c10-11.3,17.6-24.6,22.3-39.2c1-3.3,0-6.8-2.7-9c-2.7-2.1-6.4-2.4-9.4-0.6
	c-17.9,10.6-37.3,18.3-57.6,22.8c-20.4-20-48.2-31.4-76.9-31.4c-60.6,0-109.9,49.3-109.9,109.9c0,4.8,0.3,9.5,0.9,14.2
	c-75.2-6.6-145.1-43.6-193.1-102.5c-1.7-2.1-4.3-3.2-7-3c-2.7,0.2-5.1,1.7-6.5,4.1c-9.7,16.7-14.9,35.8-14.9,55.3
	c0,26.5,9.5,51.6,26.2,71.2c-5.1-1.8-10-4-14.7-6.6c-2.5-1.4-5.6-1.4-8.1,0.1c-2.5,1.4-4.1,4.1-4.2,7c0,0.5,0,1,0,1.5
	c0,39.5,21.3,75.1,53.8,94.5c-2.8-0.3-5.6-0.7-8.4-1.2c-2.9-0.5-5.8,0.5-7.7,2.6c-1.9,2.2-2.6,5.2-1.7,8c12,37.6,43,65.2,80.5,73.7
	c-31.1,19.5-66.6,29.7-103.9,29.7c-7.8,0-15.6-0.5-23.3-1.4c-3.8-0.5-7.4,1.8-8.7,5.4c-1.3,3.6,0.1,7.7,3.3,9.7
	c47.9,30.7,103.4,47,160.3,47c111.9,0,181.9-52.8,220.9-97c48.7-55.2,76.6-128.3,76.6-200.5c0-3,0-6.1-0.1-9.1
	c19.2-14.5,35.7-32,49.2-52.1c2-3.1,1.8-7.1-0.5-9.9C507.7,94.2,503.8,93.3,500.4,94.8z"/>
</svg>
